<svg width="59" height="41" viewBox="0 0 59 41" fill="none" xmlns="http://www.w3.org/2000/svg">
<g filter="url(#filter0_d)">
<circle cx="28.3579" cy="8.07363" r="7.57363" stroke="url(#paint0_linear)"/>
<mask id="path-2-inside-1" fill="white">
<path d="M5.84664 9.25792L18.3847 3.44316L18.1473 4.98665H16.96L16.7225 7.24252L17.9098 7.47998V9.02346H16.96L17.1974 11.2793H18.1473L18.3847 12.3479L17.9098 13.179L18.8596 14.8412L20.0469 14.2476L20.878 15.5536L20.0469 16.0285L21.8279 17.6907L22.4215 17.0971L23.6088 17.6907L23.1339 18.9968L25.5085 19.5904L25.8647 18.6406H27.1707V19.5904H29.7828V18.6406H30.8513L31.2075 19.353L33.4634 18.6406L33.1072 17.6907L34.1758 17.0971L34.7694 17.6907L36.7878 16.0285L36.0755 15.1974L36.7878 14.2476L37.7377 14.8412L38.925 13.179L38.0939 12.3479L38.6875 11.3981H39.6373L39.8748 9.02346H38.925V7.47998L39.8748 7.24252L39.2812 5.22411H38.6875L38.0939 3.91808L38.3313 3.44316L53.8601 11.2076C54.3239 11.4395 54.3382 12.0961 53.8849 12.3479L50.323 14.2476V19.2342C50.7979 19.4717 51.5103 20.0653 51.3916 21.1339C51.2729 22.2025 50.2043 22.4399 50.2043 22.4399V26.1483C50.2043 26.5989 50.3058 27.0438 50.5013 27.4498L51.7478 30.0386H47.711C47.8533 29.7254 48.5283 28.2037 48.8958 27.3744C49.0543 27.0168 49.1412 26.6318 49.1517 26.2408L49.2545 22.4399C49.2545 22.4399 48.0672 22.0837 48.0672 21.0152C48.0672 19.9466 48.4233 19.5904 49.017 19.2342V14.485L42.6744 13.8914L46.9986 15.5536L31.5812 22.1889C29.4579 23.1028 27.0431 23.0535 24.9589 22.0538L5.82315 12.8756C4.29881 12.1445 4.31293 9.9692 5.84664 9.25792Z"/>
<path d="M12.4482 26.5955V19.353C16.5642 21.4109 22.8298 24.2381 24.6395 24.9419C26.4493 25.6456 28.962 25.8642 31.9302 24.5581L44.1491 19.5904C44.0699 22.4004 44.1253 26.2155 44.0303 26.5955C43.9116 27.0704 38.7512 33 27.7093 33C17.9098 33 14.6249 28.7326 12.4482 26.5955Z"/>
<path d="M24.0837 5.69903C23.9888 5.79401 22.936 5.42199 22.4215 5.22411L25.0336 2.49332L25.8647 3.91808L24.0837 5.69903Z"/>
<path d="M23.6088 6.7676L22.0653 6.41141V10.2108L23.6088 9.49838V6.7676Z"/>
<path d="M24.0837 10.6857L22.659 11.3981L25.0336 13.8914L25.8647 12.3479L24.0837 10.6857Z"/>
<path d="M26.9333 12.9415C26.775 13.3769 26.4583 14.2951 26.4583 14.485L30.3764 14.2476L29.4266 12.9415H26.9333Z"/>
<path d="M32.2761 10.6857L30.8513 12.5854L31.5637 14.2476L34.1758 11.2793L32.2761 10.6857Z"/>
<path d="M33.1072 9.49838L34.532 10.2108V6.17395L32.9885 7.24252L33.1072 9.49838Z"/>
<path d="M32.3948 5.69903L34.1758 5.22411L31.445 2.37459L30.8513 4.15554L32.3948 5.69903Z"/>
<path d="M27.1707 3.56189H29.9015L30.6139 1.89967L26.5771 1.78094L27.1707 3.56189Z"/>
</mask>
<path d="M18.3847 3.44316L20.3615 3.74728L20.9289 0.0586159L17.5433 1.62879L18.3847 3.44316ZM5.84664 9.25792L5.00519 7.44354H5.00519L5.84664 9.25792ZM5.82315 12.8756L4.95822 14.6789H4.95822L5.82315 12.8756ZM24.9589 22.0538L24.0939 23.8571L24.9589 22.0538ZM31.5812 22.1889L32.3718 24.026L31.5812 22.1889ZM46.9986 15.5536L47.7892 17.3907L52.3007 15.4491L47.7162 13.6868L46.9986 15.5536ZM42.6744 13.8914L42.8608 11.9001L41.9568 15.7582L42.6744 13.8914ZM49.017 14.485H51.017V12.6635L49.2034 12.4937L49.017 14.485ZM49.017 19.2342L50.046 20.9492L51.017 20.3666V19.2342H49.017ZM49.2545 22.4399L51.2537 22.494L51.2951 20.9641L49.8292 20.5243L49.2545 22.4399ZM49.1517 26.2408L47.1525 26.1868V26.1868L49.1517 26.2408ZM48.8958 27.3744L50.7243 28.1848L50.7243 28.1848L48.8958 27.3744ZM47.711 30.0386L45.8902 29.211L44.605 32.0386H47.711V30.0386ZM51.7478 30.0386V32.0386H54.9305L53.5498 29.171L51.7478 30.0386ZM50.5013 27.4498L52.3033 26.5821L52.3033 26.5821L50.5013 27.4498ZM50.2043 22.4399L49.7704 20.4876L48.2043 20.8356V22.4399H50.2043ZM51.3916 21.1339L53.3794 21.3548V21.3548L51.3916 21.1339ZM50.323 19.2342H48.323V20.4703L49.4286 21.0231L50.323 19.2342ZM50.323 14.2476L49.3818 12.4829L48.323 13.0476V14.2476H50.323ZM53.8849 12.3479L54.8261 14.1126L54.8412 14.1045L54.8562 14.0962L53.8849 12.3479ZM53.8601 11.2076L54.7546 9.41872L53.8601 11.2076ZM38.3313 3.44316L39.2257 1.65431L37.4369 0.759883L36.5425 2.54873L38.3313 3.44316ZM38.0939 3.91808L36.305 3.02365L35.8783 3.87706L36.2731 4.74569L38.0939 3.91808ZM38.6875 5.22411L36.8668 6.05172L37.3997 7.22411H38.6875V5.22411ZM39.2812 5.22411L41.1999 4.65977L40.7776 3.22411H39.2812V5.22411ZM39.8748 7.24252L40.3599 9.1828L42.3815 8.67739L41.7935 6.67818L39.8748 7.24252ZM38.925 7.47998L38.4399 5.53969L36.925 5.91842V7.47998H38.925ZM38.925 9.02346H36.925V11.0235H38.925V9.02346ZM39.8748 9.02346L41.8649 9.22247L42.0848 7.02346H39.8748V9.02346ZM39.6373 11.3981V13.3981H41.4473L41.6274 11.5971L39.6373 11.3981ZM38.6875 11.3981V9.39806H37.579L36.9915 10.3381L38.6875 11.3981ZM38.0939 12.3479L36.3979 11.2879L35.5546 12.6371L36.6796 13.7621L38.0939 12.3479ZM38.925 13.179L40.5524 14.3415L41.5372 12.9628L40.3392 11.7648L38.925 13.179ZM37.7377 14.8412L36.6777 16.5372L38.2722 17.5338L39.3651 16.0037L37.7377 14.8412ZM36.7878 14.2476L37.8478 12.5516L36.29 11.578L35.1878 13.0476L36.7878 14.2476ZM36.0755 15.1974L34.4755 13.9974L33.5128 15.2809L34.5569 16.499L36.0755 15.1974ZM36.7878 16.0285L38.0592 17.5724L39.6338 16.2757L38.3063 14.7269L36.7878 16.0285ZM34.7694 17.6907L33.3552 19.1049L34.6392 20.3889L36.0408 19.2346L34.7694 17.6907ZM34.1758 17.0971L35.59 15.6829L34.5233 14.6161L33.2045 15.3488L34.1758 17.0971ZM33.1072 17.6907L32.1359 15.9424L30.6294 16.7794L31.2345 18.393L33.1072 17.6907ZM33.4634 18.6406L34.0657 20.5477L36.0765 19.9128L35.3361 17.9383L33.4634 18.6406ZM31.2075 19.353L29.4187 20.2474L30.1821 21.7741L31.8098 21.2601L31.2075 19.353ZM30.8513 18.6406L32.6402 17.7461L32.0874 16.6406H30.8513V18.6406ZM29.7828 18.6406V16.6406H27.7828V18.6406H29.7828ZM29.7828 19.5904V21.5904H31.7828V19.5904H29.7828ZM27.1707 19.5904H25.1707V21.5904H27.1707V19.5904ZM27.1707 18.6406H29.1707V16.6406H27.1707V18.6406ZM25.8647 18.6406V16.6406H24.4787L23.992 17.9383L25.8647 18.6406ZM25.5085 19.5904L25.0234 21.5307L26.7546 21.9635L27.3812 20.2927L25.5085 19.5904ZM23.1339 18.9968L21.2543 18.3133L20.4959 20.3988L22.6488 20.937L23.1339 18.9968ZM23.6088 17.6907L25.4884 18.3742L26.0976 16.699L24.5032 15.9019L23.6088 17.6907ZM22.4215 17.0971L23.316 15.3082L22.0266 14.6636L21.0073 15.6829L22.4215 17.0971ZM21.8279 17.6907L20.4632 19.1528L21.8758 20.4712L23.2421 19.105L21.8279 17.6907ZM20.0469 16.0285L19.0547 14.292L16.698 15.6387L18.6823 17.4906L20.0469 16.0285ZM20.878 15.5536L21.8703 17.2901L23.6915 16.2494L22.5654 14.4799L20.878 15.5536ZM20.0469 14.2476L21.7343 13.1738L20.7658 11.652L19.1525 12.4587L20.0469 14.2476ZM18.8596 14.8412L17.1231 15.8335L18.0618 17.4762L19.7541 16.6301L18.8596 14.8412ZM17.9098 13.179L16.1733 12.1867L15.6063 13.179L16.1733 14.1713L17.9098 13.179ZM18.3847 12.3479L20.1212 13.3402L20.5048 12.6688L20.3371 11.914L18.3847 12.3479ZM18.1473 11.2793L20.0996 10.8455L19.7516 9.27933H18.1473V11.2793ZM17.1974 11.2793L15.2084 11.4887L15.3969 13.2793H17.1974V11.2793ZM16.96 9.02346V7.02346H14.7384L14.9709 9.23283L16.96 9.02346ZM17.9098 9.02346V11.0235H19.9098V9.02346H17.9098ZM17.9098 7.47998H19.9098V5.84037L18.302 5.51881L17.9098 7.47998ZM16.7225 7.24252L14.7335 7.03315L14.5426 8.84615L16.3303 9.20368L16.7225 7.24252ZM16.96 4.98665V2.98665H15.1594L14.9709 4.77728L16.96 4.98665ZM18.1473 4.98665V6.98665H19.8631L20.124 5.29076L18.1473 4.98665ZM12.4482 19.353L13.3426 17.5641L10.4482 16.1169V19.353H12.4482ZM12.4482 26.5955H10.4482V27.4347L11.047 28.0226L12.4482 26.5955ZM44.0303 26.5955L42.0901 26.1104L42.0901 26.1104L44.0303 26.5955ZM44.1491 19.5904L46.1483 19.6467L46.2346 16.5836L43.3958 17.7377L44.1491 19.5904ZM31.9302 24.5581L31.177 22.7054L31.1507 22.7161L31.1248 22.7275L31.9302 24.5581ZM24.6395 24.9419L25.3644 23.0778H25.3644L24.6395 24.9419ZM22.4215 5.22411L20.9762 3.84166L18.8998 6.01244L21.7036 7.0908L22.4215 5.22411ZM24.0837 5.69903L25.498 7.11324L24.0837 5.69903ZM25.8647 3.91808L27.2789 5.33229L28.3691 4.24209L27.5922 2.91034L25.8647 3.91808ZM25.0336 2.49332L26.7611 1.48558L25.4234 -0.807656L23.5883 1.11088L25.0336 2.49332ZM22.0653 6.41141L22.5151 4.46262L20.0653 3.8973V6.41141H22.0653ZM23.6088 6.7676H25.6088V5.17657L24.0585 4.81881L23.6088 6.7676ZM23.6088 9.49838L24.4469 11.3143L25.6088 10.778V9.49838H23.6088ZM22.0653 10.2108H20.0653V13.3366L22.9035 12.0267L22.0653 10.2108ZM22.659 11.3981L21.7646 9.6092L19.3454 10.8188L21.2107 12.7774L22.659 11.3981ZM24.0837 10.6857L25.4484 9.22357L24.4324 8.2753L23.1893 8.89682L24.0837 10.6857ZM25.8647 12.3479L27.6256 13.2961L28.3568 11.9381L27.2293 10.8858L25.8647 12.3479ZM25.0336 13.8914L23.5853 15.2707L25.4871 17.2676L26.7945 14.8396L25.0336 13.8914ZM26.4583 14.485H24.4583V16.6099L26.5793 16.4814L26.4583 14.485ZM26.9333 12.9415V10.9415H25.5324L25.0537 12.2581L26.9333 12.9415ZM29.4266 12.9415L31.0441 11.7652L30.445 10.9415H29.4266V12.9415ZM30.3764 14.2476L30.4974 16.2439L34.1407 16.0231L31.9939 13.0712L30.3764 14.2476ZM30.8513 12.5854L29.2513 11.3854L28.5576 12.3104L29.0131 13.3732L30.8513 12.5854ZM32.2761 10.6857L32.8726 8.77672L31.5239 8.35524L30.6761 9.48568L32.2761 10.6857ZM34.1758 11.2793L35.6772 12.6006L37.7115 10.2889L34.7723 9.37037L34.1758 11.2793ZM31.5637 14.2476L29.7254 15.0354L30.973 17.9463L33.0651 15.5688L31.5637 14.2476ZM34.532 10.2108L33.6375 11.9996L36.532 13.4468V10.2108H34.532ZM33.1072 9.49838L31.11 9.6035L31.1712 10.7664L32.2128 11.2872L33.1072 9.49838ZM32.9885 7.24252L31.8501 5.59813L30.9326 6.2333L30.9912 7.34763L32.9885 7.24252ZM34.532 6.17395H36.532V2.35681L33.3935 4.52956L34.532 6.17395ZM34.1758 5.22411L34.6911 7.15658L37.962 6.28435L35.6198 3.8403L34.1758 5.22411ZM32.3948 5.69903L30.9806 7.11324L31.796 7.92861L32.9102 7.6315L32.3948 5.69903ZM30.8513 4.15554L28.954 3.52308L28.5631 4.69572L29.4371 5.56975L30.8513 4.15554ZM31.445 2.37459L32.889 0.990783L30.5957 -1.40216L29.5476 1.74214L31.445 2.37459ZM29.9015 3.56189V5.56189H31.2203L31.7398 4.34973L29.9015 3.56189ZM27.1707 3.56189L25.2734 4.19435L25.7292 5.56189H27.1707V3.56189ZM26.5771 1.78094L26.6359 -0.218191L23.7744 -0.30235L24.6797 2.4134L26.5771 1.78094ZM30.6139 1.89967L32.4522 2.68751L33.6096 -0.0130818L30.6727 -0.0994608L30.6139 1.89967ZM17.5433 1.62879L5.00519 7.44354L6.68809 11.0723L19.2262 5.25754L17.5433 1.62879ZM4.95822 14.6789L24.0939 23.8571L25.8238 20.2505L6.68809 11.0723L4.95822 14.6789ZM32.3718 24.026L47.7892 17.3907L46.2079 13.7165L30.7905 20.3519L32.3718 24.026ZM47.7162 13.6868L43.392 12.0246L41.9568 15.7582L46.281 17.4204L47.7162 13.6868ZM42.488 15.8827L48.8306 16.4763L49.2034 12.4937L42.8608 11.9001L42.488 15.8827ZM47.017 14.485V19.2342H51.017V14.485H47.017ZM47.988 17.5192C47.6108 17.7456 47.0331 18.1271 46.6129 18.8147C46.189 19.5083 46.0672 20.2718 46.0672 21.0152H50.0672C50.0672 20.9365 50.0705 20.879 50.0743 20.839C50.0782 20.7991 50.0823 20.7796 50.0831 20.7761C50.0838 20.7732 50.0811 20.7861 50.0715 20.8103C50.0617 20.8352 50.0469 20.8664 50.026 20.9005C50.0052 20.9346 49.9827 20.9644 49.9615 20.9886C49.9407 21.0124 49.925 21.0265 49.9197 21.031C49.915 21.035 49.9203 21.0301 49.9415 21.0154C49.9631 21.0005 49.9958 20.9793 50.046 20.9492L47.988 17.5192ZM47.2552 22.3859L47.1525 26.1868L51.151 26.2948L51.2537 22.494L47.2552 22.3859ZM47.0674 26.564C46.6966 27.4006 46.0275 28.9091 45.8902 29.211L49.5317 30.8662C49.6792 30.5418 50.36 29.0068 50.7243 28.1848L47.0674 26.564ZM47.711 32.0386H51.7478V28.0386H47.711V32.0386ZM53.5498 29.171L52.3033 26.5821L48.6993 28.3174L49.9458 30.9063L53.5498 29.171ZM52.2043 26.1483V22.4399H48.2043V26.1483H52.2043ZM50.2043 22.4399C50.6382 24.3923 50.6391 24.3921 50.6399 24.3919C50.6403 24.3918 50.6412 24.3916 50.6418 24.3915C50.643 24.3912 50.6442 24.3909 50.6455 24.3907C50.648 24.3901 50.6506 24.3895 50.6533 24.3889C50.6586 24.3877 50.6643 24.3863 50.6703 24.3849C50.6823 24.3821 50.6954 24.3788 50.7098 24.3752C50.7385 24.3679 50.7721 24.3588 50.8099 24.3478C50.8851 24.3259 50.9792 24.2956 51.0865 24.2546C51.2968 24.1743 51.5821 24.044 51.8828 23.8382C52.5051 23.4124 53.239 22.6178 53.3794 21.3548L49.4038 20.913C49.4254 20.7186 49.5657 20.577 49.6241 20.537C49.6428 20.5242 49.6535 20.5201 49.6597 20.5177C49.665 20.5157 49.6747 20.5122 49.691 20.5075C49.6994 20.505 49.7099 20.5021 49.7228 20.4988C49.7294 20.4972 49.7365 20.4954 49.7444 20.4935C49.7484 20.4926 49.7525 20.4916 49.7569 20.4906C49.759 20.4901 49.7612 20.4896 49.7635 20.4891C49.7646 20.4889 49.7658 20.4886 49.7669 20.4883C49.7675 20.4882 49.7684 20.488 49.7687 20.4879C49.7696 20.4878 49.7704 20.4876 50.2043 22.4399ZM53.3794 21.3548C53.6305 19.0946 52.057 17.8651 51.2175 17.4454L49.4286 21.0231C49.4285 21.0231 49.4296 21.0236 49.4315 21.0247C49.4335 21.0258 49.4359 21.0272 49.4388 21.029C49.4447 21.0328 49.4503 21.0368 49.455 21.0406C49.4657 21.0492 49.4626 21.0491 49.4525 21.0349C49.4403 21.0179 49.4235 20.9878 49.4128 20.9488C49.4078 20.9305 49.4057 20.9159 49.405 20.9068C49.4043 20.8979 49.4054 20.8993 49.4038 20.913L53.3794 21.3548ZM52.323 19.2342V14.2476H48.323V19.2342H52.323ZM51.2642 16.0123L54.8261 14.1126L52.9437 10.5832L49.3818 12.4829L51.2642 16.0123ZM54.7546 9.41872L39.2257 1.65431L37.4369 5.23202L52.9657 12.9964L54.7546 9.41872ZM36.5425 2.54873L36.305 3.02365L39.8827 4.81251L40.1202 4.33759L36.5425 2.54873ZM36.2731 4.74569L36.8668 6.05172L40.5082 4.3965L39.9146 3.09047L36.2731 4.74569ZM38.6875 7.22411H39.2812V3.22411H38.6875V7.22411ZM37.3624 5.78844L37.9561 7.80685L41.7935 6.67818L41.1999 4.65977L37.3624 5.78844ZM39.3897 5.30223L38.4399 5.53969L39.41 9.42026L40.3599 9.1828L39.3897 5.30223ZM36.925 7.47998V9.02346H40.925V7.47998H36.925ZM38.925 11.0235H39.8748V7.02346H38.925V11.0235ZM37.8847 8.82446L37.6473 11.1991L41.6274 11.5971L41.8649 9.22247L37.8847 8.82446ZM39.6373 9.39806H38.6875V13.3981H39.6373V9.39806ZM36.9915 10.3381L36.3979 11.2879L39.7899 13.4079L40.3835 12.4581L36.9915 10.3381ZM36.6796 13.7621L37.5107 14.5932L40.3392 11.7648L39.5081 10.9337L36.6796 13.7621ZM37.2975 12.0165L36.1102 13.6787L39.3651 16.0037L40.5524 14.3415L37.2975 12.0165ZM38.7977 13.1452L37.8478 12.5516L35.7278 15.9436L36.6777 16.5372L38.7977 13.1452ZM35.1878 13.0476L34.4755 13.9974L37.6754 16.3974L38.3878 15.4476L35.1878 13.0476ZM34.5569 16.499L35.2693 17.3301L38.3063 14.7269L37.594 13.8958L34.5569 16.499ZM35.5164 14.4847L33.498 16.1469L36.0408 19.2346L38.0592 17.5724L35.5164 14.4847ZM36.1836 16.2765L35.59 15.6829L32.7616 18.5113L33.3552 19.1049L36.1836 16.2765ZM33.2045 15.3488L32.1359 15.9424L34.0785 19.4391L35.1471 18.8454L33.2045 15.3488ZM31.2345 18.393L31.5907 19.3428L35.3361 17.9383L34.9799 16.9885L31.2345 18.393ZM32.8611 16.7334L30.6053 17.4458L31.8098 21.2601L34.0657 20.5477L32.8611 16.7334ZM32.9964 18.4585L32.6402 17.7461L29.0625 19.535L29.4187 20.2474L32.9964 18.4585ZM30.8513 16.6406H29.7828V20.6406H30.8513V16.6406ZM27.7828 18.6406V19.5904H31.7828V18.6406H27.7828ZM29.7828 17.5904H27.1707V21.5904H29.7828V17.5904ZM29.1707 19.5904V18.6406H25.1707V19.5904H29.1707ZM27.1707 16.6406H25.8647V20.6406H27.1707V16.6406ZM23.992 17.9383L23.6358 18.8882L27.3812 20.2927L27.7373 19.3428L23.992 17.9383ZM25.9936 17.6501L23.619 17.0565L22.6488 20.937L25.0234 21.5307L25.9936 17.6501ZM25.0135 19.6803L25.4884 18.3742L21.7292 17.0073L21.2543 18.3133L25.0135 19.6803ZM24.5032 15.9019L23.316 15.3082L21.5271 18.8859L22.7144 19.4796L24.5032 15.9019ZM21.0073 15.6829L20.4137 16.2765L23.2421 19.105L23.8357 18.5113L21.0073 15.6829ZM23.1925 16.2286L21.4116 14.5664L18.6823 17.4906L20.4632 19.1528L23.1925 16.2286ZM21.0392 17.765L21.8703 17.2901L19.8858 13.8171L19.0547 14.292L21.0392 17.765ZM22.5654 14.4799L21.7343 13.1738L18.3596 15.3213L19.1907 16.6274L22.5654 14.4799ZM19.1525 12.4587L17.9652 13.0524L19.7541 16.6301L20.9414 16.0364L19.1525 12.4587ZM20.5961 13.8489L19.6463 12.1867L16.1733 14.1713L17.1231 15.8335L20.5961 13.8489ZM19.6463 14.1713L20.1212 13.3402L16.6482 11.3556L16.1733 12.1867L19.6463 14.1713ZM20.3371 11.914L20.0996 10.8455L16.1949 11.7132L16.4323 12.7818L20.3371 11.914ZM18.1473 9.27933H17.1974V13.2793H18.1473V9.27933ZM19.1864 11.07L18.949 8.81409L14.9709 9.23283L15.2084 11.4887L19.1864 11.07ZM16.96 11.0235H17.9098V7.02346H16.96V11.0235ZM19.9098 9.02346V7.47998H15.9098V9.02346H19.9098ZM18.302 5.51881L17.1147 5.28135L16.3303 9.20368L17.5176 9.44114L18.302 5.51881ZM18.7115 7.45188L18.949 5.19602L14.9709 4.77728L14.7335 7.03315L18.7115 7.45188ZM16.96 6.98665H18.1473V2.98665H16.96V6.98665ZM20.124 5.29076L20.3615 3.74728L16.408 3.13905L16.1705 4.68254L20.124 5.29076ZM10.4482 19.353V26.5955H14.4482V19.353H10.4482ZM11.047 28.0226C12.0203 28.9782 13.6213 30.8357 16.2227 32.3326C18.8775 33.8603 22.4997 35 27.7093 35V31C23.1194 31 20.1994 30.006 18.2177 28.8657C16.1827 27.6946 15.0528 26.3499 13.8494 25.1683L11.047 28.0226ZM27.7093 35C33.6042 35 37.9956 33.4134 40.9619 31.7103C42.4391 30.8621 43.5613 29.986 44.3411 29.2646C44.7296 28.9051 45.0442 28.5738 45.2805 28.2919C45.3971 28.1528 45.5091 28.0086 45.6055 27.8661C45.6447 27.8081 45.8676 27.4926 45.9706 27.0805L42.0901 26.1104C42.1471 25.8824 42.2318 25.729 42.2447 25.7051C42.2719 25.6547 42.2914 25.6263 42.2921 25.6253C42.2945 25.6217 42.2726 25.6536 42.2152 25.7221C42.1035 25.8554 41.9091 26.0652 41.6246 26.3285C41.0583 26.8524 40.1781 27.5478 38.9701 28.2414C36.5661 29.6218 32.8563 31 27.7093 31V35ZM45.9706 27.0806C46.0381 26.8105 46.0514 26.5055 46.0567 26.4063C46.0661 26.2281 46.0726 26.012 46.0774 25.7771C46.0872 25.3048 46.0917 24.6897 46.0956 24.0159C46.1036 22.6527 46.1095 21.0238 46.1483 19.6467L42.1499 19.5341C42.1095 20.967 42.1035 22.6506 42.0957 23.9925C42.0917 24.6712 42.0873 25.2568 42.0783 25.6945C42.0737 25.9146 42.0683 26.0808 42.0623 26.195C42.052 26.3882 42.0463 26.2854 42.0901 26.1104L45.9706 27.0806ZM43.3958 17.7377L31.177 22.7054L32.6835 26.4109L44.9023 21.4431L43.3958 17.7377ZM31.1248 22.7275C28.655 23.8142 26.6932 23.5946 25.3644 23.0778L23.9146 26.8059C26.2053 27.6967 29.2689 27.9141 32.7357 26.3888L31.1248 22.7275ZM25.3644 23.0778C23.6356 22.4055 17.4313 19.6084 13.3426 17.5641L11.5538 21.1418C15.697 23.2134 22.024 26.0706 23.9146 26.8059L25.3644 23.0778ZM21.7036 7.0908C21.9842 7.19874 22.4195 7.35747 22.8144 7.48065C23.0038 7.53975 23.2358 7.60712 23.4548 7.652C23.5551 7.67256 23.7302 7.70501 23.9307 7.71258C24.0282 7.71627 24.2079 7.71767 24.4232 7.67735C24.5967 7.64487 25.0746 7.53663 25.498 7.11324L22.6695 4.28481C22.8861 4.06822 23.1116 3.94303 23.2773 3.87128C23.4433 3.79939 23.5883 3.76417 23.6869 3.74569C23.8761 3.71026 24.023 3.71322 24.0816 3.71543C24.1522 3.7181 24.2026 3.72475 24.2232 3.72769C24.2354 3.72946 24.2444 3.73098 24.2496 3.73191C24.2549 3.73285 24.2578 3.73343 24.2578 3.73344C24.258 3.73347 24.2562 3.73311 24.2523 3.73223C24.2485 3.73136 24.2431 3.73011 24.2362 3.7284C24.222 3.72492 24.2034 3.7201 24.18 3.7137C24.1326 3.70072 24.0741 3.68353 24.0055 3.66214C23.7217 3.57359 23.3733 3.44736 23.1395 3.35742L21.7036 7.0908ZM25.498 7.11324L27.2789 5.33229L24.4505 2.50387L22.6695 4.28481L25.498 7.11324ZM27.5922 2.91034L26.7611 1.48558L23.306 3.50107L24.1371 4.92582L27.5922 2.91034ZM23.5883 1.11088L20.9762 3.84166L23.8668 6.60655L26.4789 3.87577L23.5883 1.11088ZM21.6156 8.36019L23.1591 8.71638L24.0585 4.81881L22.5151 4.46262L21.6156 8.36019ZM21.6088 6.7676V9.49838H25.6088V6.7676H21.6088ZM22.7707 7.68246L21.2272 8.39484L22.9035 12.0267L24.4469 11.3143L22.7707 7.68246ZM24.0653 10.2108V6.41141H20.0653V10.2108H24.0653ZM23.5534 13.1869L24.9782 12.4745L23.1893 8.89682L21.7646 9.6092L23.5534 13.1869ZM22.7191 12.1478L24.5001 13.81L27.2293 10.8858L25.4484 9.22357L22.7191 12.1478ZM24.1037 11.3997L23.2726 12.9432L26.7945 14.8396L27.6256 13.2961L24.1037 11.3997ZM26.4819 12.5121L24.1073 10.0187L21.2107 12.7774L23.5853 15.2707L26.4819 12.5121ZM28.4583 14.485C28.4583 14.5982 28.4477 14.6816 28.4435 14.7117C28.4384 14.7493 28.4335 14.7738 28.4322 14.7802C28.4298 14.792 28.4314 14.7825 28.4417 14.7442C28.4618 14.6695 28.4953 14.558 28.5404 14.4175C28.6295 14.1405 28.7394 13.8269 28.8128 13.625L25.0537 12.2581C24.9688 12.4916 24.8412 12.8547 24.7324 13.1931C24.6787 13.3603 24.6231 13.5412 24.5789 13.7056C24.562 13.7683 24.4583 14.1251 24.4583 14.485H28.4583ZM26.9333 14.9415H29.4266V10.9415H26.9333V14.9415ZM27.8091 14.1179L28.759 15.4239L31.9939 13.0712L31.0441 11.7652L27.8091 14.1179ZM30.2554 12.2512L26.3373 12.4887L26.5793 16.4814L30.4974 16.2439L30.2554 12.2512ZM32.4513 13.7854L33.8761 11.8857L30.6761 9.48568L29.2513 11.3854L32.4513 13.7854ZM31.6795 12.5946L33.5792 13.1883L34.7723 9.37037L32.8726 8.77672L31.6795 12.5946ZM32.6744 9.95807L30.0623 12.9263L33.0651 15.5688L35.6772 12.6006L32.6744 9.95807ZM33.402 13.4597L32.6896 11.7975L29.0131 13.3732L29.7254 15.0354L33.402 13.4597ZM35.4264 8.42191L34.0016 7.70953L32.2128 11.2872L33.6375 11.9996L35.4264 8.42191ZM35.1044 9.39327L34.9857 7.1374L30.9912 7.34763L31.11 9.6035L35.1044 9.39327ZM34.1269 8.8869L35.6704 7.81833L33.3935 4.52956L31.8501 5.59813L34.1269 8.8869ZM32.532 6.17395V10.2108H36.532V6.17395H32.532ZM33.6605 3.29164L31.8795 3.76656L32.9102 7.6315L34.6911 7.15658L33.6605 3.29164ZM33.809 4.28481L32.2656 2.74133L29.4371 5.56975L30.9806 7.11324L33.809 4.28481ZM32.7487 4.788L33.3424 3.00705L29.5476 1.74214L28.954 3.52308L32.7487 4.788ZM30.001 3.75841L32.7318 6.60792L35.6198 3.8403L32.889 0.990783L30.001 3.75841ZM29.9015 1.56189H27.1707V5.56189H29.9015V1.56189ZM29.0681 2.92943L28.4744 1.14849L24.6797 2.4134L25.2734 4.19435L29.0681 2.92943ZM26.5183 3.78008L30.5551 3.89881L30.6727 -0.0994608L26.6359 -0.218191L26.5183 3.78008ZM28.7756 1.11184L28.0632 2.77405L31.7398 4.34973L32.4522 2.68751L28.7756 1.11184ZM46.0672 21.0152C46.0672 22.4012 46.8696 23.2849 47.4608 23.7283C47.7572 23.9506 48.0421 24.0987 48.2482 24.1914C48.3539 24.239 48.4463 24.2753 48.5189 24.3017C48.5554 24.315 48.5875 24.326 48.6144 24.3349C48.6278 24.3394 48.6401 24.3433 48.651 24.3467C48.6565 24.3485 48.6616 24.35 48.6664 24.3515C48.6688 24.3523 48.6711 24.353 48.6733 24.3536C48.6744 24.354 48.6755 24.3543 48.6766 24.3546C48.6771 24.3548 48.6779 24.355 48.6782 24.3551C48.679 24.3553 48.6798 24.3556 49.2545 22.4399C49.8292 20.5243 49.8299 20.5245 49.8307 20.5247C49.8309 20.5248 49.8317 20.525 49.8322 20.5252C49.8332 20.5255 49.8342 20.5258 49.8352 20.5261C49.8371 20.5267 49.839 20.5273 49.8408 20.5278C49.8445 20.5289 49.8479 20.53 49.8511 20.531C49.8575 20.533 49.8631 20.5348 49.8679 20.5364C49.8774 20.5396 49.884 20.5419 49.888 20.5433C49.8957 20.5461 49.8953 20.5462 49.8897 20.5437C49.8839 20.5411 49.8765 20.5375 49.8692 20.5333C49.8617 20.5291 49.859 20.5269 49.8608 20.5283C49.8625 20.5295 49.8739 20.5381 49.8911 20.5562C49.9086 20.5747 49.9352 20.606 49.9631 20.652C50.0271 20.7576 50.0672 20.8904 50.0672 21.0152H46.0672ZM54.8562 14.0962C56.7154 13.0633 56.6569 10.3699 54.7546 9.41872L52.9657 12.9964C51.9909 12.509 51.961 11.1288 52.9136 10.5996L54.8562 14.0962ZM47.1525 26.1868C47.1489 26.3172 47.12 26.4453 47.0673 26.564L50.7243 28.1848C50.9886 27.5884 51.1334 26.9464 51.151 26.2948L47.1525 26.1868ZM52.3033 26.5821C52.2381 26.4468 52.2043 26.2985 52.2043 26.1483H48.2043C48.2043 26.8993 48.3735 27.6407 48.6993 28.3174L52.3033 26.5821ZM24.0939 23.8571C26.6992 25.1067 29.7177 25.1683 32.3718 24.026L30.7905 20.3519C29.1981 21.0372 27.387 21.0003 25.8238 20.2505L24.0939 23.8571ZM5.00519 7.44354C1.93778 8.86611 1.90954 13.2166 4.95822 14.6789L6.68809 11.0723L6.68809 11.0723L5.00519 7.44354Z" fill="url(#paint1_linear)" mask="url(#path-2-inside-1)"/>
<circle cx="28.2393" cy="8.19236" r="3.41808" stroke="url(#paint2_linear)"/>
</g>
<defs>
<filter id="filter0_d" x="0.68811" y="0" width="57.5285" height="41" filterUnits="userSpaceOnUse" color-interpolation-filters="sRGB">
<feFlood flood-opacity="0" result="BackgroundImageFix"/>
<feColorMatrix in="SourceAlpha" type="matrix" values="0 0 0 0 0 0 0 0 0 0 0 0 0 0 0 0 0 0 127 0"/>
<feOffset dy="4"/>
<feGaussianBlur stdDeviation="2"/>
<feColorMatrix type="matrix" values="0 0 0 0 0 0 0 0 0 0 0 0 0 0 0 0 0 0 0.25 0"/>
<feBlend mode="normal" in2="BackgroundImageFix" result="effect1_dropShadow"/>
<feBlend mode="normal" in="SourceGraphic" in2="effect1_dropShadow" result="shape"/>
</filter>
<linearGradient id="paint0_linear" x1="28.3579" y1="0" x2="28.3579" y2="16.1473" gradientUnits="userSpaceOnUse">
<stop stop-color="#FFC041"/>
<stop offset="1" stop-color="#FFC041" stop-opacity="0"/>
</linearGradient>
<linearGradient id="paint1_linear" x1="28.4767" y1="1.78094" x2="28.4767" y2="32.4132" gradientUnits="userSpaceOnUse">
<stop stop-color="#FFC041"/>
<stop offset="1" stop-color="#FFC041" stop-opacity="0"/>
</linearGradient>
<linearGradient id="paint2_linear" x1="28.2393" y1="4.27428" x2="28.2393" y2="12.1104" gradientUnits="userSpaceOnUse">
<stop stop-color="#FFC041"/>
<stop offset="1" stop-color="#FFC041" stop-opacity="0"/>
</linearGradient>
</defs>
</svg>
