<svg width="160" height="198" viewBox="0 0 160 198" fill="none" xmlns="http://www.w3.org/2000/svg">
<path d="M24.4981 128H60.5019C61.9072 128 63.2093 128.737 63.9322 129.943L82.58 161.032C83.348 162.313 83.339 163.914 82.5566 165.186L64.1542 195.096C63.4263 196.279 62.1366 197 60.7474 197H24.4468C23.0638 197 21.7789 196.286 21.0491 195.111L2.46013 165.188C1.66898 163.914 1.65642 162.305 2.4276 161.02L21.0678 129.943C21.7906 128.737 23.0928 128 24.4981 128Z" stroke="#424242" stroke-opacity="0.2" stroke-width="2"/>
<path d="M24.4981 44H60.5019C61.9072 44 63.2093 44.7374 63.9322 45.9425L82.58 77.0323C83.348 78.3127 83.339 79.9142 82.5566 81.1859L64.1542 111.096C63.4263 112.279 62.1366 113 60.7474 113H24.4468C23.0638 113 21.7789 112.286 21.0491 111.111L2.46013 81.1879C1.66898 79.9143 1.65642 78.3053 2.4276 77.0196L21.0678 45.9425C21.7906 44.7374 23.0928 44 24.4981 44Z" stroke="#424242" stroke-opacity="0.2" stroke-width="2"/>
<path d="M97.4981 1H133.502C134.907 1 136.209 1.73741 136.932 2.94251L155.58 34.0323C156.348 35.3127 156.339 36.9142 155.557 38.1859L137.154 68.0961C136.426 69.2792 135.137 70 133.747 70H97.4468C96.0638 70 94.7789 69.2856 94.0491 68.1108L75.4601 38.1879C74.669 36.9143 74.6564 35.3053 75.4276 34.0196L94.0678 2.94251C94.7906 1.73741 96.0928 1 97.4981 1Z" stroke="#424242" stroke-opacity="0.2" stroke-width="2"/>
<path d="M99.4981 86H135.502C136.907 86 138.209 86.7374 138.932 87.9425L157.58 119.032C158.348 120.313 158.339 121.914 157.557 123.186L139.154 153.096C138.426 154.279 137.137 155 135.747 155H99.4468C98.0638 155 96.7789 154.286 96.0491 153.111L77.4601 123.188C76.669 121.914 76.6564 120.305 77.4276 119.02L96.0678 87.9425C96.7906 86.7374 98.0928 86 99.4981 86Z" stroke="#424242" stroke-opacity="0.2" stroke-width="2"/>
</svg>
