<svg width="29" height="25" viewBox="0 0 29 25" fill="none" xmlns="http://www.w3.org/2000/svg">
<path d="M24.0336 6.51714L24.1151 6.65474L24.9755 6.14526L24.1151 6.65475C26.1805 10.1429 26.1561 14.4853 24.0517 17.9501C22.0603 21.2289 18.5022 23.2308 14.666 23.2308H14.0237C10.1937 23.2308 6.63887 21.2407 4.63665 17.9758C2.50572 14.501 2.49791 10.072 4.58067 6.55446C6.60075 3.14278 10.3473 1 14.3094 1C18.2879 1 22.0108 3.1009 24.0336 6.51714Z" fill="black" stroke="white" stroke-width="2"/>
<path d="M20.3328 7.97469L13.014 15.4059L10.2366 12.5854L9.30371 13.5326L12.5476 16.826L13.014 17.2785L13.4805 16.826L21.2657 8.92186L20.3328 7.97469Z" fill="white"/>
</svg>
