<svg width="26" height="25" viewBox="0 0 26 25" fill="none" xmlns="http://www.w3.org/2000/svg">
<path d="M13 0.426056C10.5277 0.426056 8.11099 1.13748 6.05538 2.47038C3.99976 3.80327 2.39761 5.69776 1.45151 7.91427C0.505416 10.1308 0.257874 12.5698 0.74019 14.9228C1.2225 17.2759 2.41301 19.4373 4.16117 21.1337C5.90933 22.8302 8.13661 23.9855 10.5614 24.4535C12.9861 24.9216 15.4995 24.6814 17.7836 23.7632C20.0676 22.8451 22.0199 21.2904 23.3934 19.2955C24.7669 17.3007 25.5 14.9555 25.5 12.5563C25.5 10.9634 25.1767 9.38599 24.5485 7.91427C23.9203 6.44256 22.9996 5.10533 21.8388 3.97893C20.6781 2.85253 19.3001 1.95902 17.7836 1.34942C16.267 0.739815 14.6415 0.426056 13 0.426056ZM13 22.2605C11.0222 22.2605 9.08879 21.6914 7.4443 20.6251C5.79981 19.5588 4.51809 18.0432 3.76121 16.27C3.00433 14.4968 2.8063 12.5456 3.19215 10.6631C3.57801 8.7807 4.53041 7.05157 5.92894 5.69441C7.32746 4.33725 9.10929 3.41301 11.0491 3.03857C12.9889 2.66414 14.9996 2.85631 16.8268 3.5908C18.6541 4.32529 20.2159 5.5691 21.3147 7.16495C22.4135 8.76081 23 10.637 23 12.5563C23 15.13 21.9464 17.5984 20.0711 19.4182C18.1957 21.2381 15.6522 22.2605 13 22.2605Z" fill="black"/>
<path d="M18 11.3433H14.25V7.70422C14.25 7.38251 14.1183 7.07397 13.8839 6.84648C13.6495 6.619 13.3315 6.4912 13 6.4912C12.6685 6.4912 12.3505 6.619 12.1161 6.84648C11.8817 7.07397 11.75 7.38251 11.75 7.70422V12.5563C11.75 12.878 11.8817 13.1866 12.1161 13.4141C12.3505 13.6416 12.6685 13.7694 13 13.7694H18C18.3315 13.7694 18.6495 13.6416 18.8839 13.4141C19.1183 13.1866 19.25 12.878 19.25 12.5563C19.25 12.2346 19.1183 11.9261 18.8839 11.6986C18.6495 11.4711 18.3315 11.3433 18 11.3433Z" fill="black"/>
</svg>
