<svg width="40" height="39" viewBox="0 0 40 39" fill="none" xmlns="http://www.w3.org/2000/svg">
<path d="M21.962 0.416763V3.06758C30.0006 3.06758 36.5415 9.60846 36.5415 17.647H39.1923C39.1923 8.14653 31.4625 0.416763 21.962 0.416763ZM8.24406 4.40094C7.54955 4.40094 6.85371 4.62758 6.28776 5.08352L6.22282 5.13654L2.05442 9.43615L2.14322 9.35265C0.764796 10.5402 0.383078 12.417 0.975535 13.9942C2.09285 17.215 4.9385 23.443 10.5569 29.0522C16.1846 34.6878 22.4776 37.4128 25.591 38.6282L25.6228 38.6388L25.6533 38.6494C26.4328 38.9071 27.2657 38.9586 28.071 38.7988C28.8763 38.639 29.6264 38.2734 30.2485 37.7376L30.2882 37.7044L34.4288 33.5625C35.5289 32.4624 35.5289 30.5353 34.4288 29.4365L28.9986 23.9997C27.8959 22.897 25.9687 22.897 24.866 23.9997L22.2364 26.6293C21.2953 26.18 18.9785 25.015 16.7757 22.9155C14.6047 20.8426 13.4953 18.4489 13.0937 17.5225L15.7445 14.8716C16.9069 13.7093 16.9732 11.7119 15.6332 10.6436L15.7538 10.7563L10.264 5.13654L10.2017 5.08352C9.64629 4.63903 8.95542 4.39814 8.24406 4.40094ZM21.962 5.71839V8.3692C27.0768 8.3692 31.2399 12.531 31.2399 17.647H33.8907C33.8907 11.0704 28.54 5.71839 21.962 5.71839ZM8.24672 7.0438C8.34215 7.0438 8.43492 7.07958 8.52638 7.14983L13.9168 12.6688L13.9818 12.7218C13.9658 12.7086 14.0321 12.8358 13.8704 12.9975L9.95119 16.9181L10.2534 17.7186C10.2534 17.7186 11.7498 21.785 14.9466 24.8347C18.0905 27.8328 21.9673 29.471 21.9673 29.471L22.7931 29.8236L26.7401 25.8752C26.9641 25.6525 26.9005 25.6525 27.1245 25.8752L32.5547 31.312C32.78 31.5373 32.78 31.4631 32.5547 31.6897L28.5162 35.7282C27.9012 36.2505 27.2663 36.387 26.5015 36.1338C23.5048 34.9622 17.6399 32.3962 12.431 27.1794C7.18507 21.94 4.46533 15.9876 3.46863 13.1036L3.46332 13.0876L3.45537 13.0691C3.25523 12.5389 3.40236 11.7689 3.87287 11.3633L3.91661 11.3235L7.9644 7.14983C8.04423 7.08429 8.14349 7.04701 8.24672 7.0438ZM21.962 11.02V13.6708C24.1542 13.6708 25.9382 15.4548 25.9382 17.647H28.5891C28.5891 13.9929 25.6162 11.02 21.962 11.02Z" fill="url(#paint0_linear)"/>
<defs>
<linearGradient id="paint0_linear" x1="19.9491" y1="0.416763" x2="19.9491" y2="49.9919" gradientUnits="userSpaceOnUse">
<stop stop-color="#FFC041"/>
<stop offset="1" stop-color="#FFC041" stop-opacity="0"/>
</linearGradient>
</defs>
</svg>
