<svg width="38" height="29" viewBox="0 0 38 29" fill="none" xmlns="http://www.w3.org/2000/svg">
<path d="M23.4199 0.0840464C22.6843 0.089348 21.954 0.125134 21.1826 0.331898C20.3423 0.560007 19.5449 0.923995 18.8221 1.40945C17.8068 0.81302 16.8234 0.32262 15.881 0.207309C14.7107 0.0628398 13.6238 0.141039 12.3607 0.167547C10.863 0.198032 9.88618 0.962791 8.301 1.57513C6.71714 2.18482 4.67733 2.77595 1.79855 2.77595H0.473145V15.533L1.21935 15.9054L3.66207 17.1076L12.3607 26.7989L12.4018 26.84C13.3959 27.8235 14.7372 28.0674 15.9221 27.9998C17.1083 27.9335 18.2217 27.5862 19.111 27.0481C21.0686 25.8672 26.4008 22.16 26.4008 22.16L26.5253 22.0765L26.6088 21.9943C27.2397 21.3674 27.5565 20.6027 27.7686 19.7995L32.8621 17.2308L36.6727 15.9478L37.5845 15.6563V2.77595H36.2591C34.0312 2.79118 31.8219 2.36878 29.7567 1.53272C28.1715 0.913752 27.2093 0.156944 25.6956 0.125134C24.8871 0.109229 24.1529 0.0787448 23.4186 0.0840464H23.4199ZM23.4597 2.73486C24.0561 2.72956 24.7453 2.76137 25.6148 2.77595C25.754 2.78125 27.0277 3.32467 28.8037 4.01918C30.3054 4.60898 32.3916 5.13252 34.9337 5.30217V13.7516L31.8681 14.7881H31.7859L31.7024 14.8279L27.6864 16.8584C27.4732 16.2433 27.1347 15.6792 26.6923 15.2016L26.6088 15.077L20.9759 8.16107L20.1475 7.12461L19.111 7.95299L15.5496 10.853C14.3541 11.6814 13.3853 11.4428 12.4018 10.9776C12.1168 10.8424 12.1327 10.8013 11.9048 10.6462L17.9526 5.63352L18.0348 5.55135C19.8307 3.77 20.9348 3.15369 21.8864 2.90054C22.3636 2.77065 22.8659 2.74016 23.461 2.73486H23.4597ZM14.2256 2.77595C14.6678 2.75928 15.1106 2.77301 15.551 2.81704C15.8982 2.85812 16.2919 3.15369 16.6285 3.27298C16.4933 3.39756 16.3953 3.46914 16.2548 3.60433L16.1726 3.68783L8.92394 9.69192L7.80529 10.6038L8.79935 11.6389C8.79935 11.6389 9.75762 12.6754 11.2434 13.3792C12.7292 14.083 15.0235 14.4819 17.0831 13.0479L17.1666 12.9644L19.734 10.853L24.6221 16.8584L24.6631 16.9419L24.7042 16.9817C25.579 17.8471 25.5591 19.2083 24.7042 20.0897C24.6936 20.099 24.7148 20.1202 24.7042 20.1295C24.6936 20.1361 24.5187 20.2395 24.4975 20.2554L22.7572 17.8935L20.6034 19.4681L22.3026 21.7452C21.6134 22.2117 21.3032 22.4556 20.5623 22.9473L18.7823 20.5444L16.6272 22.1189L18.3264 24.396C18.1753 24.4888 17.8651 24.6969 17.7458 24.7697C17.327 25.0229 16.5185 25.3079 15.7988 25.349C15.1215 25.3861 14.6033 25.2297 14.3502 25.0176L14.3091 24.9765L5.44475 15.1605L5.27907 14.9525L3.12396 13.8762V5.30217C5.65549 5.1365 7.75758 4.63417 9.25396 4.06027C11.0247 3.38166 12.2891 2.82234 12.4429 2.81704L14.2242 2.77595H14.2256Z" fill="url(#paint0_linear)"/>
<defs>
<linearGradient id="paint0_linear" x1="19.0288" y1="0.083435" x2="19.0288" y2="36.0692" gradientUnits="userSpaceOnUse">
<stop stop-color="#FFC041"/>
<stop offset="1" stop-color="#FFC041" stop-opacity="0"/>
</linearGradient>
</defs>
</svg>
