<svg width="225" height="95" viewBox="0 0 225 95" fill="none" xmlns="http://www.w3.org/2000/svg">
<path d="M65.1442 35.5218L48.8272 7.345H17.4777L1.15923 35.5243L17.3078 62.71H48.8374L65.1442 35.5218Z" stroke="#424242" stroke-width="2"/>
<path d="M65.1442 -24.8232L48.8272 -53H17.4777L1.15923 -24.8207L17.3078 2.365H48.8374L65.1442 -24.8232Z" stroke="#424242" stroke-width="2"/>
<path d="M118.039 4.97678L101.722 -23.2H70.3727L54.0543 4.97926L70.2028 32.165H101.732L118.039 4.97678Z" stroke="#424242" stroke-width="2"/>
<path d="M117.294 66.0668L100.977 37.89H69.6277L53.3093 66.0693L69.4578 93.255H100.987L117.294 66.0668Z" stroke="#424242" stroke-width="2"/>
<path d="M170.189 35.5218L153.872 7.345H122.523L106.204 35.5243L122.353 62.71H153.882L170.189 35.5218Z" stroke="#424242" stroke-width="2"/>
<path d="M170.189 -24.8232L153.872 -53H122.523L106.204 -24.8207L122.353 2.365H153.882L170.189 -24.8232Z" stroke="#424242" stroke-width="2"/>
<path d="M223.084 5.72181L206.767 -22.455H175.418L159.099 5.72429L175.248 32.91H206.777L223.084 5.72181Z" stroke="#424242" stroke-width="2"/>
<path d="M221.594 66.8118L205.277 38.635H173.928L157.609 66.8143L173.758 94H205.287L221.594 66.8118Z" stroke="#424242" stroke-width="2"/>
</svg>
