<svg width="197" height="132" viewBox="0 0 197 132" fill="none" xmlns="http://www.w3.org/2000/svg">
<path d="M118.144 59.4782L101.827 87.655L70.4778 87.655L54.1594 59.4757L70.3079 32.29L101.837 32.29L118.144 59.4782Z" stroke="#424242" stroke-opacity="0.5" stroke-width="2"/>
<path d="M118.144 119.823L101.827 148L70.4777 148L54.1592 119.821L70.3078 92.635L101.837 92.635L118.144 119.823Z" stroke="#424242" stroke-opacity="0.5" stroke-width="2"/>
<path d="M171.039 90.0232L154.722 118.2L123.373 118.2L107.054 90.0207L123.203 62.835L154.732 62.835L171.039 90.0232Z" stroke="#424242" stroke-opacity="0.5" stroke-width="2"/>
<path d="M65.1443 90.0232L48.8273 118.2L17.4778 118.2L1.15936 90.0207L17.3079 62.835L48.8375 62.835L65.1443 90.0232Z" stroke="#424242" stroke-opacity="0.5" stroke-width="2"/>
<path d="M170.294 28.9332L153.977 57.11L122.628 57.11L106.309 28.9307L122.458 1.74498L153.987 1.74498L170.294 28.9332Z" stroke="#424242" stroke-opacity="0.5" stroke-width="2"/>
<path d="M223.189 59.4782L206.872 87.655L175.523 87.655L159.204 59.4757L175.353 32.29L206.882 32.29L223.189 59.4782Z" stroke="#424242" stroke-opacity="0.5" stroke-width="2"/>
<path d="M223.189 119.823L206.872 148L175.523 148L159.204 119.821L175.353 92.635L206.882 92.635L223.189 119.823Z" stroke="#424242" stroke-opacity="0.5" stroke-width="2"/>
</svg>
