<svg width="18" height="17" viewBox="0 0 18 17" fill="none" xmlns="http://www.w3.org/2000/svg">
<path d="M13.125 0.0625C10.8562 0.0625 9 1.91875 9 4.1875C9 4.8695 9.26331 5.56525 9.60156 6.33594C9.95973 7.13778 10.3614 7.91948 10.8047 8.67756C11.3563 9.62356 11.9441 10.548 12.5667 11.4489L13.125 12.2656L13.6839 11.4489C13.6839 11.4489 14.5701 10.1873 15.4453 8.67825C15.8887 7.91994 16.2903 7.13801 16.6484 6.33594C16.9867 5.56525 17.25 4.8695 17.25 4.1875C17.25 1.91875 15.3938 0.0625 13.125 0.0625ZM6.22869 1.39488L0.75 3.7365V16.9269L6.27131 14.5426L11.7713 16.6051L17.25 14.2628V8.26919C16.8237 9.07506 16.365 9.86335 15.875 10.6321V13.3608L12.4375 14.8218V13.7046L11.4276 12.2436C11.3203 12.0876 11.1938 11.9026 11.0625 11.706V14.8857L6.9375 13.3388V3.11363L7.68962 3.39344C7.75375 2.93551 7.87645 2.48772 8.05469 2.06106L6.22869 1.39488ZM13.125 1.4375C14.6506 1.4375 15.875 2.66194 15.875 4.1875C15.875 4.45356 15.7086 5.08125 15.402 5.77769C15.0961 6.47275 14.6636 7.26269 14.2422 7.99006C13.6812 8.95669 13.4392 9.30044 13.125 9.77344C12.8108 9.30044 12.5688 8.95669 12.0078 7.99006C11.5864 7.26269 11.1539 6.47275 10.8473 5.777C10.5414 5.08263 10.375 4.45356 10.375 4.1875C10.375 2.66194 11.5994 1.4375 13.125 1.4375ZM5.5625 3.15625V13.3615L2.125 14.8224V4.6385L5.5625 3.15625ZM13.125 3.15625C12.8515 3.15625 12.5892 3.2649 12.3958 3.4583C12.2024 3.65169 12.0938 3.914 12.0938 4.1875C12.0938 4.461 12.2024 4.72331 12.3958 4.9167C12.5892 5.1101 12.8515 5.21875 13.125 5.21875C13.3985 5.21875 13.6608 5.1101 13.8542 4.9167C14.0476 4.72331 14.1562 4.461 14.1562 4.1875C14.1562 3.914 14.0476 3.65169 13.8542 3.4583C13.6608 3.2649 13.3985 3.15625 13.125 3.15625Z" fill="black"/>
</svg>
