<svg width="44" height="40" viewBox="0 0 44 40" fill="none" xmlns="http://www.w3.org/2000/svg">
<g filter="url(#filter0_d)">
<path d="M16.8374 0.0500755C11.728 0.0500755 7.55959 4.21848 7.55959 9.32792C7.55959 12.5221 9.18984 15.3585 11.6604 17.0325C6.93268 19.0604 3.58337 23.7523 3.58337 29.209H6.23419C6.23419 23.3375 10.9659 18.6058 16.8374 18.6058C18.6599 18.6058 20.3577 19.0829 21.8488 19.8901C20.3226 21.7774 19.4894 24.131 19.4883 26.5582C19.4883 32.3979 24.2518 37.1615 30.0915 37.1615C35.9313 37.1615 40.6948 32.3979 40.6948 26.5582C40.6948 20.7185 35.9313 15.955 30.0915 15.955C27.8578 15.9569 25.6823 16.6674 23.878 17.9841C23.2826 17.6185 22.6595 17.2999 22.0145 17.0312C23.2754 16.18 24.3085 15.0327 25.0234 13.6898C25.7383 12.3469 26.1132 10.8493 26.1153 9.32792C26.1153 4.21848 21.9469 0.0500755 16.8374 0.0500755ZM16.8374 2.70089C20.5128 2.70089 23.4645 5.65257 23.4645 9.32792C23.4645 13.0033 20.5128 15.955 16.8374 15.955C13.1621 15.955 10.2104 13.0033 10.2104 9.32792C10.2104 5.65257 13.1621 2.70089 16.8374 2.70089ZM30.0915 18.6058C34.4972 18.6058 38.0439 22.1526 38.0439 26.5582C38.0439 30.9639 34.4972 34.5106 30.0915 34.5106C25.6859 34.5106 22.1391 30.9639 22.1391 26.5582C22.1391 22.1526 25.6859 18.6058 30.0915 18.6058ZM34.4402 22.9544L30.0915 27.3044L27.0683 24.2798L25.1623 26.1858L29.1385 30.162L30.0915 31.0725L31.0445 30.162L36.3461 24.8604L34.4402 22.9544Z" fill="url(#paint0_linear)"/>
</g>
<defs>
<filter id="filter0_d" x="-0.416626" y="0.0500755" width="45.1114" height="45.1114" filterUnits="userSpaceOnUse" color-interpolation-filters="sRGB">
<feFlood flood-opacity="0" result="BackgroundImageFix"/>
<feColorMatrix in="SourceAlpha" type="matrix" values="0 0 0 0 0 0 0 0 0 0 0 0 0 0 0 0 0 0 127 0"/>
<feOffset dy="4"/>
<feGaussianBlur stdDeviation="2"/>
<feColorMatrix type="matrix" values="0 0 0 0 0 0 0 0 0 0 0 0 0 0 0 0 0 0 0.25 0"/>
<feBlend mode="normal" in2="BackgroundImageFix" result="effect1_dropShadow"/>
<feBlend mode="normal" in="SourceGraphic" in2="effect1_dropShadow" result="shape"/>
</filter>
<linearGradient id="paint0_linear" x1="22.1391" y1="0.0500755" x2="22.1391" y2="47.8707" gradientUnits="userSpaceOnUse">
<stop stop-color="#FFC041"/>
<stop offset="1" stop-color="#FFC041" stop-opacity="0"/>
</linearGradient>
</defs>
</svg>
