<svg width="33" height="33" viewBox="0 0 33 33" fill="none" xmlns="http://www.w3.org/2000/svg">
<path d="M24.3241 0.251526C19.9503 0.251526 16.3717 3.83012 16.3717 8.20397C16.3717 9.51877 16.8793 10.8601 17.5314 12.3459C18.2219 13.8917 18.9962 15.3987 19.8509 16.8602C20.9143 18.684 22.0475 20.4662 23.2479 22.2029L24.3241 23.7775L25.4017 22.2029C25.4017 22.2029 27.1101 19.7708 28.7974 16.8615C29.6521 15.3996 30.4264 13.8921 31.1168 12.3459C31.7689 10.8601 32.2766 9.51877 32.2766 8.20397C32.2766 3.83012 28.698 0.251526 24.3241 0.251526ZM11.029 2.82016L0.466797 7.3345V32.7637L11.1111 28.1672L21.7144 32.1435L32.2766 27.6278V16.0729C31.4548 17.6265 30.5704 19.1462 29.6257 20.6283V25.8889L22.9987 28.7054V26.5516L21.0517 23.7351C20.8449 23.4342 20.601 23.0777 20.3479 22.6986V28.8286L12.3955 25.8465V6.13368L13.8455 6.67312C13.9691 5.7903 14.2056 4.92702 14.5492 4.10448L11.029 2.82016ZM24.3241 2.90234C27.2652 2.90234 29.6257 5.26289 29.6257 8.20397C29.6257 8.7169 29.305 9.92699 28.7139 11.2696C28.1241 12.6096 27.2904 14.1325 26.4779 15.5348C25.3964 17.3983 24.9298 18.061 24.3241 18.9729C23.7184 18.061 23.2519 17.3983 22.1703 15.5348C21.3579 14.1325 20.5242 12.6096 19.933 11.2683C19.3432 9.92964 19.0225 8.7169 19.0225 8.20397C19.0225 5.26289 21.383 2.90234 24.3241 2.90234ZM9.74464 6.21586V25.8902L3.11761 28.7067V9.07343L9.74464 6.21586ZM24.3241 6.21586C23.7968 6.21586 23.2912 6.42532 22.9183 6.79816C22.5455 7.171 22.336 7.67669 22.336 8.20397C22.336 8.73125 22.5455 9.23693 22.9183 9.60977C23.2912 9.98261 23.7968 10.1921 24.3241 10.1921C24.8514 10.1921 25.3571 9.98261 25.7299 9.60977C26.1028 9.23693 26.3122 8.73125 26.3122 8.20397C26.3122 7.67669 26.1028 7.171 25.7299 6.79816C25.3571 6.42532 24.8514 6.21586 24.3241 6.21586Z" fill="url(#paint0_linear)"/>
<defs>
<linearGradient id="paint0_linear" x1="16.3717" y1="0.251526" x2="16.3717" y2="42.1458" gradientUnits="userSpaceOnUse">
<stop stop-color="#FFC041"/>
<stop offset="1" stop-color="#FFC041" stop-opacity="0"/>
</linearGradient>
</defs>
</svg>
