<svg width="30" height="31" viewBox="0 0 30 31" fill="none" xmlns="http://www.w3.org/2000/svg">
<path d="M6.10009 0.245323V1.57073H0.798462V30.7297H29.9574V1.57073H24.6558V0.245323H22.005V1.57073H8.7509V0.245323H6.10009ZM3.44928 4.22154H6.10009V5.54695H8.7509V4.22154H22.005V5.54695H24.6558V4.22154H27.3066V6.87236H3.44928V4.22154ZM3.44928 9.52317H27.3066V28.0789H3.44928V9.52317ZM11.4017 12.174V14.8248H14.0525V12.174H11.4017ZM16.7033 12.174V14.8248H19.3542V12.174H16.7033ZM22.005 12.174V14.8248H24.6558V12.174H22.005ZM15.3779 16.1502V21.4518H20.6796V16.1502H15.3779ZM6.10009 17.4756V20.1264H8.7509V17.4756H6.10009ZM11.4017 17.4756V20.1264H14.0525V17.4756H11.4017ZM22.005 17.4756V20.1264H24.6558V17.4756H22.005ZM6.10009 22.7772V25.4281H8.7509V22.7772H6.10009ZM11.4017 22.7772V25.4281H14.0525V22.7772H11.4017ZM16.7033 22.7772V25.4281H19.3542V22.7772H16.7033Z" fill="url(#paint0_linear)"/>
<defs>
<linearGradient id="paint0_linear" x1="15.3779" y1="0.245323" x2="15.3779" y2="39.5266" gradientUnits="userSpaceOnUse">
<stop stop-color="#FFC041"/>
<stop offset="1" stop-color="#FFC041" stop-opacity="0"/>
</linearGradient>
</defs>
</svg>
