<svg width="33" height="33" viewBox="0 0 33 33" fill="none" xmlns="http://www.w3.org/2000/svg">
<path d="M0.609131 14.5335H14.7465V0.396118H0.609131V14.5335ZM4.14348 3.93047H11.2122V10.9992H4.14348V3.93047ZM0.609131 32.2053H14.7465V18.0679H0.609131V32.2053ZM4.14348 21.6022H11.2122V28.6709H4.14348V21.6022ZM18.2809 0.396118V14.5335H32.4183V0.396118H18.2809ZM28.8839 10.9992H21.8152V3.93047H28.8839V10.9992ZM28.8839 28.6709H32.4183V32.2053H28.8839V28.6709ZM18.2809 18.0679H21.8152V21.6022H18.2809V18.0679ZM21.8152 21.6022H25.3496V25.1366H21.8152V21.6022ZM18.2809 25.1366H21.8152V28.6709H18.2809V25.1366ZM21.8152 28.6709H25.3496V32.2053H21.8152V28.6709ZM25.3496 25.1366H28.8839V28.6709H25.3496V25.1366ZM25.3496 18.0679H28.8839V21.6022H25.3496V18.0679ZM28.8839 21.6022H32.4183V25.1366H28.8839V21.6022Z" fill="url(#paint0_linear)"/>
<defs>
<linearGradient id="paint0_linear" x1="16.5137" y1="0.396118" x2="16.5137" y2="41.3845" gradientUnits="userSpaceOnUse">
<stop stop-color="#FFC041"/>
<stop offset="1" stop-color="#FFC041" stop-opacity="0"/>
</linearGradient>
</defs>
</svg>
