<svg width="43" height="43" viewBox="0 0 43 43" fill="none" xmlns="http://www.w3.org/2000/svg">
<path d="M21.2062 5.30153C16.0968 5.30153 11.9285 9.46985 11.9285 14.5792C11.9285 17.7323 13.5322 20.5222 15.9457 22.2001C10.505 24.3234 6.62695 29.6249 6.62695 35.7853H9.27772C9.27772 29.9563 13.507 25.0842 19.0524 24.0636L19.8808 26.5076H22.5315L23.3599 24.0636C28.9053 25.0842 33.1346 29.9563 33.1346 35.7853H35.7853C35.7853 29.6249 31.9073 24.3234 26.4666 22.2001C28.8788 20.5222 30.4838 17.7323 30.4838 14.5792C30.4838 9.46985 26.3155 5.30153 21.2062 5.30153ZM21.2062 7.95229C24.8814 7.95229 27.8331 10.9039 27.8331 14.5792C27.8331 18.2545 24.8814 21.2061 21.2062 21.2061C17.5309 21.2061 14.5792 18.2545 14.5792 14.5792C14.5792 10.9039 17.5309 7.95229 21.2062 7.95229ZM19.8808 27.833L18.5554 35.7853H23.8569L22.5315 27.833H19.8808Z" fill="url(#paint0_linear)"/>
<defs>
<linearGradient id="paint0_linear" x1="21.2062" y1="5.30153" x2="21.2062" y2="44.582" gradientUnits="userSpaceOnUse">
<stop stop-color="#FFC041"/>
<stop offset="1" stop-color="#FFC041" stop-opacity="0"/>
</linearGradient>
</defs>
</svg>
